<svg version="1.2" xmlns="http://www.w3.org/2000/svg" viewBox="0 0 717 273" width="717" height="273">
	<title>logo-white</title>
	<style>
		.s0 { fill: #e6e52d;stroke: #e6e52d;stroke-miterlimit:10;stroke-width: 4 } 
		.s1 { fill: #ffffff;stroke: #ffffff;stroke-miterlimit:10;stroke-width: 4 } 
		.s2 { fill: #e6e52d } 
		.s3 { fill: #ffffff } 
	</style>
	<g id="Layer_4">
		<g>
			<g>
				<path class="s0" d="m339 252.5q0 0.8-0.9 1.2-6.5 2-13.3 2.9-6.8 0.8-13.7 0.8-11.4 0-20.9-3.1-9.5-3.1-16.3-9-6.8-5.9-10.6-14.6-3.8-8.7-3.8-19.8 0-11.5 4.1-20.2 4-8.7 11-14.6 7.1-5.8 16.7-8.8 9.7-3 21-3 6.5 0 12.2 0.8 5.8 0.7 11.3 2 0.8 0.1 1.2 0.6 0.3 0.5 0.4 1 0.1 1.1 0.2 2.8 0.1 1.7 0.2 3.6 0 2 0.2 4 0.1 2 0.1 3.7 0.1 1.8 0.2 3 0 1.2 0 1.5l-3.8 0.4q-0.6-4.8-3-8.1-2.5-3.3-6-5.3-3.5-2-7.8-2.9-4.3-0.9-8.5-0.9-8.5 0-14.8 2.6-6.4 2.7-10.7 7.5-4.3 4.8-6.4 11.5-2.2 6.8-2.2 14.9 0 9.7 2.7 17.7 2.7 8 8 13.7 5.3 5.7 13.2 8.9 7.9 3.2 18.4 3.2 1.8 0 3.7-0.1 1.8-0.1 3.8-0.3v-24q0-2.2-0.3-3.6-0.3-1.4-1-2.1-0.8-0.7-1.9-1-1.1-0.3-2.8-0.3-0.6 0-1.1 0.1-0.6 0-1.2 0l-0.4-4.3q4.1-0.3 7.6-0.5 3.5-0.2 6.1-0.3 2.7-0.1 4.4-0.1 1.7-0.1 2.2-0.1 2.5 0 2.5 2.5c0 0 0 36.1 0 36.1z"/>
				<path class="s0" d="m372.2 223.2l-11.7 31.7q-0.3 0.9-1.4 1-1.4 0.2-3.1 0.2-1.8 0.1-4 0.1-1.2 0-1.2-0.8 0-0.2 0-0.3l35.1-84-1.6-4.4q-0.2-0.6-0.2-0.9 0-1.1 1.5-1.3 1.2-0.3 2.8-0.5 1.7-0.2 3.2-0.3 1.5-0.2 2.8-0.2 1.3-0.1 1.9-0.1 1.6 0 2.3 1.7l34.1 87.8q0.2 0.6 0.2 0.9 0 1.3-1.5 1.5-1.4 0.2-3.1 0.4-1.8 0.2-3.4 0.3-1.7 0.1-3 0.2-1.4 0-2 0-1.3 0-1.8-1.1l-12.4-32.5zm2.4-6.5h28.7l-14.5-37.9z"/>
				<path class="s0" d="m463.2 243.4q0 1.8 0.1 2.8 0.1 1.1 0.6 1.6 0.5 0.6 1.6 0.8 1.2 0.1 3.2 0.1h7.6q6.1 0 10-0.3 3.9-0.3 6.5-1.9 2.7-1.6 4.8-4.9 2-3.3 4.6-9.2l3.8 0.8q0 0.5-0.4 2.8-0.4 2.3-1 5.3-0.5 3-1.2 6.1-0.7 3.2-1.4 5.4-1 2.6-3.7 2.6-5.8 0-14.3-0.1-8.5-0.1-20.5-0.1h-12.7q-1.1 0-1.5-0.6-0.4-0.7-0.4-1.3v-74.7q0-2.1-0.4-3.5-0.4-1.3-1.2-2.1-0.8-0.7-1.9-1.1-1.1-0.3-2.5-0.3-1.7 0-3.4 0.3l-0.4-4.2q4.1-0.8 7.8-1.3 3.7-0.6 6.6-0.9 2.9-0.3 4.8-0.4 1.9-0.2 2.4-0.2 2.5 0 2.5 2.5c0 0 0 76 0 76z"/>
				<path class="s0" d="m509.4 167.7q4.2-0.8 7.9-1.3 3.7-0.6 6.5-0.9 2.9-0.3 4.8-0.4 1.9-0.2 2.5-0.2 2.4 0 2.4 2.5v85.8q0 1.8-1.8 2.1-1.3 0.2-2.9 0.4-1.6 0.2-3.1 0.3-1.4 0.1-2.7 0.2-1.3 0-1.9 0-1.8 0-1.8-1.9v-75.7q0-2.1-0.4-3.5-0.5-1.3-1.3-2.1-0.8-0.7-1.9-1.1-1.1-0.3-2.5-0.3-1.6 0-3.3 0.3z"/>
				<path class="s0" d="m568.4 223.2l-11.8 31.7q-0.3 0.9-1.4 1-1.3 0.2-3.1 0.2-1.8 0.1-4 0.1-1.2 0-1.2-0.8 0-0.2 0.1-0.3l35-84-1.6-4.4q-0.2-0.6-0.2-0.9 0-1.1 1.5-1.3 1.2-0.3 2.9-0.5 1.6-0.2 3.1-0.3 1.6-0.2 2.9-0.2 1.3-0.1 1.9-0.1 1.5 0 2.2 1.7l34.1 87.8q0.2 0.6 0.2 0.9 0 1.3-1.5 1.5-1.4 0.2-3.1 0.4-1.7 0.2-3.4 0.3-1.6 0.1-3 0.2-1.4 0-2 0-1.3 0-1.7-1.1l-12.5-32.5zm2.4-6.5h28.7l-14.5-37.9z"/>
			</g>
		</g>
		<g>
			<path class="s1" d="m244.5 56.9q-0.8-4.2-2.5-7.2-1.7-3-4.3-5-2.5-2-5.6-3-3.2-0.9-6.9-0.9-3.6 0-6.9 0.8-3.3 0.9-5.8 2.8-2.5 1.9-4 4.9-1.5 3-1.5 7.1 0 3.7 1.8 6.3 1.7 2.7 4.7 4.6 2.9 2 6.7 3.5 3.9 1.5 8 3.1 4.6 1.7 9.2 3.8 4.6 2 8.2 4.9 3.6 2.9 5.9 7 2.2 4.2 2.2 10.2 0 5.3-1.5 9.3-1.4 4.1-4.1 7.1-2.6 3-6.1 5.1-3.6 2-7.6 3.3-4.1 1.3-8.5 1.8-4.4 0.5-8.6 0.5-5.2 0-10.2-0.6-5.1-0.6-10.2-1.7-0.7-0.2-1.1-0.7-0.4-0.5-0.5-1-0.1-1.6-0.3-4.7-0.1-3.1-0.3-6.3-0.1-3.2-0.2-5.8 0-2.6 0-3.1l3.8-0.4q0.5 4.6 2.4 8 1.9 3.3 4.7 5.5 2.9 2.2 6.6 3.2 3.7 1.1 8 1.1 3.8 0 7.4-0.9 3.6-0.9 6.4-2.8 2.8-2 4.5-5.1 1.7-3 1.7-7.4 0-3.6-1.8-6.1-1.8-2.5-4.7-4.5-2.9-1.9-6.7-3.4-3.8-1.6-7.9-3.2-4.5-1.8-9.1-3.9-4.6-2.1-8.3-5.1-3.6-3-5.8-7.2-2.3-4.3-2.3-10.5 0-7.5 2.9-12.5 3-5 7.8-8.1 4.7-3.1 10.8-4.4 6.1-1.3 12.4-1.3 4.3 0 9.2 0.7 5 0.6 9.4 1.7 0.6 0.2 1.1 0.7 0.4 0.5 0.5 1 0.1 1.6 0.3 4.5 0.1 2.8 0.3 5.8 0.1 2.9 0.2 5.3 0.1 2.4 0.1 2.8z"/>
			<path class="s1" d="m290.4 83.6q6.2-0.5 10.9-1.8 4.7-1.4 7.9-4.1 3.2-2.6 4.8-6.7 1.7-4 1.7-9.8 0-5.1-1.7-9-1.7-4-4.7-6.7-3-2.7-7.1-4.2-4.2-1.4-9.2-1.4-3.4 0-5.2 0.4-1.7 0.5-1.7 3v79.4q0 1.8-1.9 2.1-1.3 0.2-2.8 0.4-1.6 0.2-3.1 0.3-1.5 0.1-2.7 0.2-1.3 0-1.9 0-1.8 0-1.8-1.9v-76.5q0-3.9-1.7-5.2-1.7-1.3-4.4-1.3-1.5 0-3.4 0.3l-0.4-4.2q6.7-1.2 14.6-2.2 7.9-1 17.7-1 4.5 0 9.1 0.5 4.5 0.4 8.6 1.4 4 1.1 7.6 2.9 3.6 1.7 6.2 4.5 2.6 2.7 4 6.5 1.5 3.8 1.5 8.9 0 7.9-3.3 13.4-3.4 5.5-9 9-5.6 3.5-12.8 5.2-7.3 1.6-15.1 1.9z"/>
			<path class="s1" d="m387.2 33.8q9.9 0 17.9 3.1 7.9 3 13.5 8.8 5.6 5.8 8.7 14.2 3.1 8.4 3.1 19 0 11.6-3.4 20.6-3.4 8.9-9.7 15-6.3 6.1-15.1 9.3-8.8 3.1-19.7 3.1-9.9 0-17.9-3.1-7.9-3.2-13.6-9.1-5.6-5.9-8.6-14.4-3-8.5-3-19.2 0-11.5 3.4-20.4 3.4-8.8 9.6-14.8 6.3-6 15.1-9 8.9-3.1 19.7-3.1zm-3.8 6.4q-7.5 0-12.8 3.1-5.4 3-8.8 8.2-3.4 5.1-5 11.7-1.6 6.7-1.6 13.9 0 8 1.7 15.8 1.7 7.8 5.5 13.9 3.7 6.1 9.7 9.9 6 3.8 14.4 3.8 7.5 0 12.8-3.2 5.4-3.1 8.8-8.4 3.4-5.2 5-12 1.6-6.7 1.6-13.9 0-8.1-1.7-15.7-1.8-7.7-5.5-13.7-3.7-6-9.7-9.7-6-3.7-14.4-3.7z"/>
			<path class="s1" d="m467.1 78.8q5.9-0.3 10.4-1.6 4.5-1.3 7.5-3.8 3-2.5 4.6-6.3 1.5-3.9 1.5-9.3 0-4.5-1.6-7.9-1.7-3.3-4.7-5.5-3-2.2-7-3.3-4.1-1-8.7-1-3.1 0-4.6 0.5-1.6 0.5-1.6 2.8v79.3q0 1.8-1.8 2.1-1.3 0.2-2.9 0.4-1.5 0.2-3 0.3-1.5 0.1-2.8 0.2-1.2 0-1.9 0-1.8 0-1.8-1.9v-76.7q0-3.8-1.7-5.1-1.7-1.2-4.3-1.2-1.6 0-3.4 0.2l-0.5-4.2q7.7-1.3 15.9-2.2 8.2-0.9 16.8-0.9 3.7 0 7.7 0.3 4.1 0.3 8 1.2 3.9 0.8 7.4 2.3 3.5 1.5 6.1 3.9 2.7 2.4 4.3 5.8 1.5 3.4 1.5 8.1 0 5-1.5 8.7-1.5 3.8-4.1 6.7-2.6 2.9-6.2 5-3.5 2.1-7.5 3.5v0.5q1.9 0.4 4.1 1.2 2.2 0.8 4.3 2.3 2.1 1.5 3.9 3.7 1.8 2.3 2.9 5.7l5.6 17.5q1.2 3.6 2.2 5.7 0.9 2.2 2 3.3 1 1.1 2.4 1.5 1.4 0.3 3.5 0.3l0.2 4q-1.5 0.3-3.2 0.5-1.7 0.3-3.4 0.5-1.7 0.1-3 0.2-1.3 0.2-2 0.1-2.5 0.1-4.4-0.5-1.9-0.6-3.4-2-1.6-1.4-2.7-3.8-1.2-2.3-2.2-5.8l-5.5-18.7q-1.1-3.9-2.7-6.3-1.6-2.4-4-3.6-2.4-1.3-5.8-1.7-3.4-0.4-8.3-0.6z"/>
			<path class="s1" d="m537.9 42.3q-4.9 0-8.2 0.3-3.2 0.2-5.4 1.7-2.1 1.5-3.5 4.7-1.4 3.2-2.7 9l-3.9-0.3q0-0.3 0.1-1.7 0-1.4 0.1-3.3 0.1-1.9 0.3-4.2 0.1-2.3 0.2-4.5 0.2-2.2 0.3-4 0.2-1.9 0.3-3 0.1-1.1 1.4-1.1 7 0.1 13.3 0.2 6.4 0.1 11.7 0.1h25.5q5.3 0 11.8-0.1 6.4-0.1 13.3-0.2 1.1 0 1.3 1.1 0.1 1.1 0.2 3 0.1 1.8 0.3 4 0.1 2.2 0.2 4.5 0 2.3 0.1 4.2 0 1.9 0 3.3 0.1 1.4 0.1 1.7l-3.8 0.3q-1.3-5.8-2.7-9-1.3-3.2-3.4-4.7-2-1.5-5.2-1.7-3.2-0.3-8.2-0.3h-9.8v80.4q0 1.8-1.9 2.1-1.3 0.2-2.8 0.4-1.6 0.2-3.1 0.3-1.5 0.1-2.7 0.2-1.3 0-1.9 0-1.8 0-1.8-1.9v-81.5z"/>
			<path class="s1" d="m647.1 33.8q9.9 0 17.9 3.1 7.9 3 13.5 8.8 5.6 5.8 8.7 14.2 3.1 8.4 3.1 19 0 11.6-3.4 20.6-3.4 8.9-9.7 15-6.3 6.1-15.1 9.3-8.8 3.1-19.7 3.1-9.9 0-17.9-3.1-7.9-3.2-13.6-9.1-5.6-5.9-8.6-14.4-3-8.5-3-19.2 0-11.5 3.4-20.4 3.4-8.8 9.6-14.8 6.3-6 15.2-9 8.8-3.1 19.6-3.1zm-3.8 6.4q-7.5 0-12.8 3.1-5.4 3-8.8 8.2-3.4 5.1-5 11.7-1.6 6.7-1.6 13.9 0 8 1.7 15.8 1.7 7.8 5.5 13.9 3.7 6.1 9.7 9.9 6 3.8 14.4 3.8 7.5 0 12.8-3.2 5.4-3.1 8.8-8.4 3.4-5.2 5-12 1.6-6.7 1.6-13.9 0-8.1-1.7-15.7-1.8-7.7-5.5-13.7-3.7-6-9.7-9.7-6-3.7-14.4-3.7z"/>
		</g>
	</g>
	<g id="Layer_2">
		<g>
			<path fill-rule="evenodd" class="s2" d="m136.1 154.2l-122.6 117.1 77.4-106.6-69.4-38.8z"/>
			<path fill-rule="evenodd" class="s3" d="m20.7 126l122.6-117.2-77.3 106.6 69.4 38.8z"/>
		</g>
	</g>
</svg>